<?xml version="1.0" encoding="utf-8"?>
<!-- Generator: Adobe Illustrator 25.2.0, SVG Export Plug-In . SVG Version: 6.00 Build 0)  -->
<svg version="1.1" id="Layer_1" xmlns="http://www.w3.org/2000/svg" xmlns:xlink="http://www.w3.org/1999/xlink" x="0px" y="0px"
	 viewBox="0 0 1029.4 303.8" style="enable-background:new 0 0 1029.4 303.8;" xml:space="preserve">
<style type="text/css">
	.st0{fill:#294795;}
	.st1{fill:#FDFDFD;}
	.st2{fill-rule:evenodd;clip-rule:evenodd;fill:#294795;}
	.st3{fill-rule:evenodd;clip-rule:evenodd;fill:#EF7A23;}
	.st4{fill:#EF7A23;}
</style>
<g>
	<path class="st0" d="M274.7,169.4c0-17.3-0.4-34.6,0.1-51.8c1-32.1,27.5-52.2,56.9-43.6c8.6,2.4,16.1,7.9,21,15.4
		c2.6,3.8,4,3.5,6.6,0c12.5-16.5,29.5-19.5,48.4-14.9c15.6,3.8,25.6,16.9,28.1,35.5c1.6,11.7,0.9,23.5,0.9,35.2
		c-0.1,26.1-0.5,52.3-0.6,78.4c0,4.5-1.1,6.3-6,6.1c-11-0.4-22.1-0.5-33.2-0.1c-5.1,0.1-6.5-1.5-6.4-6.5c0.3-30.7,0.5-61.4,0.4-92.1
		c0-4.8,2.3-12.4-5.4-12.6c-8.3-0.2-7,7.7-7.1,13.2c-0.3,30.2-0.5,60.4-0.4,90.7c0,5.5-1.3,7.5-7.2,7.2c-10.3-0.6-20.7-0.6-31-0.1
		c-6.7,0.4-7.9-2.2-7.8-8.2c0.5-30,0.6-60,0.8-90c0-2.9-0.2-5.7-0.6-8.6c-0.3-2.6-1.7-4.6-4.4-5c-3-0.4-5,1.2-6.3,3.8
		c-1.6,3.4-1.3,7-1.4,10.6c-0.2,30-0.5,60-0.4,90c0,5.7-1.7,7.5-7.4,7.2c-10.6-0.5-21.2-0.6-31.7-0.2c-5.6,0.2-6.8-1.9-6.8-7.1
		c0.3-17.5,0.1-35,0.1-52.5L274.7,169.4z"/>
	<path class="st0" d="M741.5,193.8c0,11.8-0.1,23.5,0,35.3c0,4.6-3.3,4-6,4.2c-26.1,2.2-50-15.7-55.4-41.5
		c-5.2-23.6,6.1-47.7,27.5-58.9c20.9-11,50-6.5,65.3,10.1c9.1,9.9,12.7,22,13,34.9c0.4,16.1-0.1,32.1,0.1,48.2
		c0,4.2-1.5,5.4-5.4,5.3c-9.4-0.2-18.8-0.3-28.1-0.1c-4.1,0.1-5.3-1.3-5.2-5.3c0.2-14.9,0.3-29.7,0-44.6c-0.1-6.7-3.2-12.1-9.9-14.4
		c-5.8-2-10.9-0.3-15,4.1c-4.6,4.9-5.2,10.7-2.6,16.7c2.6,6,7.9,8.1,14.2,7.5C736.4,195,738.7,194.4,741.5,193.8z"/>
	<path class="st0" d="M1022.7,201.7c0,8.1-0.2,16.3,0.1,24.5c0.2,4.8-0.9,6.9-6.3,6.7c-8.9-0.5-17.8-0.4-26.7-0.2
		c-4.4,0.1-5.8-1.3-5.7-5.7c0.3-12.9,0.2-25.9,0.2-38.8c0.1-2.9-0.1-5.8-0.5-8.6c-1.6-8.2-8.4-13-16.3-11.8
		c-7.6,1.2-13.2,9.1-12.2,17s7.8,13.4,16,11.6c6.8-1.5,7.5,0.6,7.2,6.4c-0.6,7.9-0.6,15.8-0.1,23.7c0.7,7.3-2.8,8.3-8.7,8.3
		c-32,0.1-56-25.2-53.4-57.4c1.8-22.4,13.7-38.7,35-45.8c21.1-7,41.4-4.4,58,12.3c9.1,9.2,12.7,20.8,13.3,33.3
		C1023.1,185.4,1022.8,193.5,1022.7,201.7L1022.7,201.7z"/>
	<path class="st0" d="M498,125.8c29.3,0.1,53,24,52.9,53.3s-24,53-53.3,52.9c-30,0-54.1-23.6-54.1-53.1
		C443.4,148.9,467.1,125.8,498,125.8z"/>
	<path class="st0" d="M646.2,170.6c-3.6,0-7.2-0.2-10.8,0c-4.2,0.2-7.7-0.5-11.1-3.5c-5-4.3-13.1-3.7-18.1,0.2
		c-5.2,4.2-7.1,11.4-4.6,17.6c2.3,6.3,8.4,10.4,15.2,10c4.9-0.2,9.3-3.1,11.4-7.6c1.4-2.7,3-3.8,6.1-3.9c9.6-0.2,19.2-0.5,28.8-1.1
		c4.6-0.3,5.2,1.5,4.5,5.4c-4.2,27.5-26.6,45.7-55.4,44.8c-26.8-0.8-48.3-22-50.5-49.7c-2.1-25.7,16.4-50.3,41.6-55.4
		c27.3-5.5,53.4,9.3,62.1,34.6c2.1,6,1.1,8.4-5.5,7.9c-4.5-0.3-9.1-0.1-13.7-0.1V170.6z"/>
	<path class="st0" d="M899.3,198.8c0,9.4-0.2,18.7,0.1,28.1c0.1,4-1.2,5.5-5.4,5.4c-9.1-0.3-18.3-0.4-27.4-0.1
		c-4.6,0.1-5.6-1.7-5.6-5.9c0.3-16.8,0.2-33.6,0.3-50.4c0-3.2-0.1-6.4-2.7-8.6c-2.1-1.8-5-2.2-7.5-1c-3.7,1.5-4.2,5-4.2,8.4
		c-0.1,16.3-0.4,32.6-0.1,48.9c0.1,6.4-1.3,9-8.2,8.5c-8.6-0.7-17.3-0.3-26-0.3c-2.6,0-4.7-0.2-4.6-3.8c0.6-20.4-1.4-40.8,1.2-61.1
		c3.1-23.8,23-40.1,46.5-39.3c24,0.8,41.2,17.1,43.1,41.7c0.7,9.8,0.1,19.6,0.1,29.5L899.3,198.8z"/>
	<path class="st1" d="M482.8,177.8c0.5-8.2,7.2-14.7,15-14.4c8.3,0.5,14.7,7.6,14.4,15.9c-0.1,8.2-6.9,14.7-15.1,14.6
		c-0.1,0-0.3,0-0.4,0C488.4,193.6,482.3,186.6,482.8,177.8z"/>
	<path class="st2" d="M26.5,6.1l208.1,0.5c14,0,25.4,11.3,25.5,25.3l-0.5,243.9c-0.2,14-11.6,25.2-25.6,25.2l-208.1-0.5
		c-14,0-25.4-11.3-25.5-25.3L0.9,31.3C1.1,17.3,12.5,6,26.5,6.1 M31.2,11.5c-13.7,0-24.9,9.2-25,20.5L5.7,273.7
		c0,11.3,11.2,20.6,24.8,20.7l198.7,0.4c13.7,0,25-9.2,25-20.6l0.5-241.7c0-11.3-11.2-20.6-24.9-20.7L31.2,11.5z"/>
	<path class="st3" d="M81.3,23.3l49.4,53.1l0.1,99.6L81,124.6l-49.2,51.2V76.3L81.3,23.3z M78.1,33L35.8,78.6v86.6l42.4-44.3
		L78.1,33z"/>
	<path class="st2" d="M81,134l49.2,52.5l48.7-52.2l49.4,53.1l0.1,96.4l-49.7-48.2l-48.6,47.5l-49.2-47.7l-49.2,48v-96.3L81,134z
		 M176,144l-42.6,45.6l0.1,83.4l42.4-41.2L176,144z M78.2,143.7l-42.6,45.6l0.1,83.5l42.4-41.2L78.2,143.7z"/>
	<path class="st4" d="M318,56l-2.6-7.4H293l-2.6,7.5c-0.6,2.1-1.5,4.1-2.6,6c-0.8,1.1-2.2,1.7-3.6,1.5c-1.4,0-2.8-0.6-3.7-1.6
		c-1-1-1.6-2.3-1.6-3.7c0-0.8,0.1-1.7,0.4-2.5c0.2-0.8,0.7-2,1.2-3.6l14.1-38.1c0.4-1.1,0.9-2.4,1.5-4c0.5-1.3,1.1-2.6,1.8-3.8
		c0.6-1,1.5-1.8,2.5-2.5c1.2-0.7,2.5-1,3.9-0.9c1.4-0.1,2.7,0.3,3.9,0.9c1,0.6,1.9,1.4,2.5,2.4s1.2,2.1,1.6,3.2s1,2.7,1.7,4.5
		L328.2,52c0.9,2,1.5,4.1,1.7,6.3c0,1.4-0.6,2.8-1.6,3.7c-1,1.1-2.4,1.7-3.9,1.7c-1.5,0.1-3-0.6-3.8-1.9c-0.6-0.8-1-1.7-1.4-2.6
		C318.8,58,318.4,56.9,318,56z M295.9,39.7h16.5l-8.3-24.2L295.9,39.7z"/>
	<path class="st4" d="M380,45c0,3.4-0.8,6.7-2.6,9.6c-1.8,2.9-4.4,5.2-7.5,6.7c-3.7,1.7-7.7,2.5-11.8,2.4c-5.4,0-9.9-1.1-13.5-3.3
		c-2.5-1.6-4.6-3.7-6.1-6.3c-1.5-2.3-2.3-4.9-2.4-7.7c0-1.4,0.5-2.7,1.4-3.7s2.2-1.6,3.6-1.5c1.1,0,2.2,0.4,3,1.2
		c0.9,1,1.7,2.2,2.1,3.6c0.6,1.6,1.3,3.2,2.3,4.7c0.9,1.3,2.1,2.4,3.5,3.1c1.8,0.9,3.8,1.3,5.8,1.2c2.9,0.1,5.7-0.7,8.1-2.5
		c2-1.4,3.1-3.7,3.1-6.1c0.1-1.7-0.5-3.4-1.7-4.8c-1.2-1.2-2.7-2.2-4.3-2.7c-2.3-0.8-4.7-1.5-7.1-2c-3.4-0.8-6.8-2-10-3.5
		c-2.6-1.2-4.7-3.1-6.4-5.4c-1.6-2.5-2.5-5.5-2.4-8.5c0-3.1,0.8-6.1,2.5-8.6c1.8-2.6,4.3-4.6,7.2-5.8c3.5-1.4,7.3-2.1,11.1-2
		c3-0.1,6,0.4,8.8,1.3c2.3,0.7,4.4,1.9,6.2,3.4c1.5,1.3,2.7,2.9,3.6,4.7c0.7,1.5,1.1,3.1,1.1,4.8c0,1.4-0.5,2.8-1.4,3.8
		c-0.8,1.1-2.1,1.8-3.5,1.8c-1.1,0.1-2.1-0.3-2.9-1c-0.9-1-1.6-2.1-2.2-3.3c-0.8-2-2.1-3.7-3.6-5.2c-1.4-1.2-3.7-1.9-6.8-1.9
		c-2.5-0.1-5,0.6-7,2c-1.6,1.1-2.6,2.9-2.6,4.9c0,1.1,0.3,2.1,0.9,3c0.7,0.9,1.5,1.7,2.5,2.2c1,0.6,2.1,1.1,3.2,1.4s2.9,0.9,5.3,1.5
		c2.9,0.7,5.7,1.6,8.5,2.6c2.3,0.8,4.5,2,6.4,3.4c1.8,1.3,3.2,3.1,4.1,5.1C379.6,39.9,380.1,42.4,380,45z"/>
	<path class="st4" d="M413.8,3c5.2-0.1,10.3,1.1,14.7,3.7c4.1,2.5,7.4,6.2,9.3,10.5c2.2,5,3.3,10.5,3.2,16c0,4.2-0.5,8.4-1.7,12.4
		c-1.1,3.5-2.8,6.8-5.2,9.6c-2.3,2.7-5.2,4.9-8.5,6.2c-3.7,1.5-7.6,2.2-11.5,2.2c-4,0.1-7.9-0.7-11.6-2.2c-3.3-1.4-6.2-3.5-8.5-6.3
		c-2.4-2.8-4.1-6.1-5.2-9.7c-1.2-4-1.8-8.1-1.8-12.3c0-4.2,0.6-8.4,1.8-12.4c1.1-3.5,2.9-6.8,5.3-9.6c2.3-2.6,5.2-4.7,8.4-6.1
		C406.1,3.6,409.9,2.9,413.8,3z M429.7,33.2c0.1-3.8-0.6-7.6-2-11.2c-1.1-2.9-3-5.4-5.6-7.1c-2.5-1.6-5.4-2.5-8.3-2.4
		c-2.1,0-4.3,0.4-6.2,1.3c-1.9,0.9-3.6,2.2-4.9,3.9c-1.5,2-2.6,4.2-3.2,6.5c-0.8,2.9-1.2,6-1.2,9s0.4,6.1,1.2,9
		c0.7,2.4,1.8,4.7,3.3,6.7c4.7,5.7,12.8,7,19,3c2.6-1.7,4.6-4.2,5.7-7C429.1,41.2,429.8,37.2,429.7,33.2z"/>
	<path class="st4" d="M497.5,44.1c0,2.1-0.5,4.1-1.3,6.1c-1,2.4-2.4,4.5-4.1,6.4c-2,2.2-4.4,3.9-7.1,5.1c-3.2,1.4-6.6,2.1-10.1,2
		c-2.7,0-5.3-0.3-7.9-0.9c-2.3-0.6-4.5-1.5-6.5-2.7c-2-1.3-3.9-3-5.4-4.9s-2.7-4-3.7-6.2c-1-2.3-1.8-4.8-2.3-7.3
		c-0.5-2.7-0.8-5.5-0.8-8.2c-0.1-4.3,0.6-8.6,1.9-12.7c1.2-3.5,3.1-6.8,5.5-9.6c2.4-2.6,5.2-4.7,8.5-6.1S471,3,474.6,3
		c4.1-0.1,8.2,0.9,11.9,2.9c3.2,1.6,5.9,4.1,8,7c1.7,2.3,2.7,5.1,2.8,7.9c0,1.3-0.5,2.6-1.3,3.6s-2,1.6-3.3,1.6
		c-1.2,0.1-2.3-0.3-3.2-1.1c-1-1.1-1.8-2.4-2.4-3.7c-1.2-2.6-2.9-4.8-5.1-6.5c-2.1-1.5-4.7-2.3-7.3-2.2c-4.4-0.1-8.5,2-11,5.6
		c-2.7,3.7-4,9-4,15.9c-0.1,3.9,0.5,7.7,1.8,11.4c1,2.7,2.8,5.1,5.1,6.8c2.3,1.5,5,2.3,7.8,2.2c2.9,0.1,5.8-0.8,8.1-2.5
		c2.4-1.9,4.1-4.5,5-7.5c0.4-1.4,1-2.6,1.8-3.8c0.8-1.1,2.1-1.6,3.4-1.5c1.3,0,2.5,0.5,3.4,1.5C497.1,41.4,497.6,42.8,497.5,44.1z"
		/>
	<path class="st4" d="M508,56.4V10.2c-0.1-1.9,0.4-3.8,1.5-5.4c1-1.2,2.5-1.8,4-1.8c1.6-0.1,3.1,0.6,4.1,1.8s1.6,3,1.6,5.4v46.2
		c0,2.4-0.5,4.2-1.6,5.4c-1,1.2-2.5,1.9-4.1,1.8c-1.5,0-3-0.6-4-1.8C508.4,60.3,507.9,58.3,508,56.4z"/>
	<path class="st4" d="M567,56l-2.6-7.4H542l-2.6,7.5c-0.6,2.1-1.5,4.1-2.6,6c-0.9,1.1-2.2,1.7-3.6,1.5c-1.4,0-2.8-0.6-3.7-1.6
		c-1-1-1.6-2.3-1.6-3.7c0-0.8,0.1-1.7,0.4-2.5c0.2-0.8,0.7-2,1.2-3.6l14.1-38.1c0.4-1.1,0.9-2.4,1.5-4c0.5-1.3,1.1-2.6,1.8-3.9
		c0.6-1,1.5-1.9,2.5-2.5c2.4-1.3,5.3-1.3,7.8,0c1,0.6,1.9,1.4,2.5,2.4s1.2,2.1,1.6,3.2s1,2.7,1.7,4.5l14.2,38.1
		c0.9,2,1.5,4.1,1.7,6.3c0,1.4-0.6,2.8-1.6,3.7c-1,1.1-2.4,1.7-3.9,1.7c-0.8,0-1.6-0.2-2.2-0.5c-0.6-0.3-1.2-0.8-1.6-1.4
		c-0.6-0.8-1-1.7-1.4-2.6C567.7,58,567.3,56.9,567,56z M544.8,39.7h16.5L553,15.5L544.8,39.7z"/>
	<path class="st4" d="M632.2,44.1c0,2.1-0.5,4.1-1.3,6.1c-1,2.4-2.4,4.5-4.1,6.4c-2,2.2-4.4,3.9-7.1,5.1c-3.2,1.4-6.6,2.1-10.1,2
		c-2.7,0-5.3-0.3-7.9-0.9c-2.3-0.6-4.5-1.5-6.5-2.7c-2-1.3-3.9-3-5.4-4.9s-2.7-4-3.7-6.2c-1-2.3-1.8-4.8-2.3-7.3
		c-0.5-2.7-0.8-5.5-0.8-8.2c-0.1-4.3,0.6-8.6,1.9-12.7c1.2-3.5,3.1-6.8,5.5-9.6c2.3-2.6,5.2-4.7,8.5-6.1c3.3-1.4,6.8-2.1,10.3-2.1
		c4.1-0.1,8.2,0.9,11.9,2.8c3.2,1.6,5.9,4.1,8,7c1.7,2.3,2.7,5.1,2.8,7.9c0,1.3-0.4,2.6-1.3,3.6c-0.8,1-2,1.6-3.3,1.6
		c-1.2,0.1-2.3-0.3-3.2-1.1c-1-1.1-1.8-2.4-2.4-3.7c-1.2-2.6-2.9-4.8-5.1-6.5c-2.1-1.5-4.7-2.3-7.3-2.2c-4.4-0.1-8.5,2-11,5.6
		c-2.7,3.7-4.1,9-4.1,15.8c-0.1,3.9,0.5,7.7,1.8,11.4c1,2.7,2.8,5.1,5.1,6.8c2.3,1.5,5,2.3,7.8,2.2c2.9,0.1,5.8-0.8,8.1-2.5
		c2.4-1.9,4.1-4.5,5-7.5c0.4-1.3,1-2.6,1.8-3.8c0.8-1,2.1-1.6,3.4-1.5c1.3,0,2.5,0.5,3.4,1.5C631.7,41.4,632.2,42.8,632.2,44.1z"/>
	<path class="st4" d="M642.7,56.4V10.2c-0.1-1.9,0.4-3.8,1.5-5.4c1-1.2,2.5-1.8,4-1.8c1.6-0.1,3.1,0.6,4.1,1.8s1.6,3,1.6,5.4v46.2
		c0,2.4-0.5,4.2-1.6,5.4c-1,1.2-2.5,1.9-4.1,1.8c-1.5,0-3-0.6-4-1.8C643.1,60.3,642.5,58.3,642.7,56.4z"/>
	<path class="st4" d="M690.6,3c5.2-0.1,10.3,1.1,14.7,3.7c4.1,2.5,7.4,6.1,9.4,10.5c2.2,5,3.3,10.5,3.2,16c0,4.2-0.5,8.4-1.7,12.4
		c-1.1,3.5-2.8,6.8-5.2,9.6c-2.3,2.7-5.2,4.9-8.5,6.2c-7.4,2.9-15.7,2.9-23.1-0.1c-3.3-1.4-6.2-3.5-8.5-6.3
		c-2.4-2.9-4.1-6.2-5.2-9.7c-1.2-4-1.8-8.1-1.8-12.3c0-4.2,0.6-8.4,1.8-12.4c1.1-3.5,2.9-6.8,5.3-9.6c2.3-2.6,5.2-4.7,8.4-6.1
		C682.9,3.6,686.8,2.9,690.6,3z M706.5,33.2c0.1-3.8-0.6-7.6-2-11.2c-1.1-2.9-3.1-5.4-5.6-7.1c-2.5-1.6-5.4-2.5-8.3-2.4
		c-2.1,0-4.3,0.4-6.2,1.3c-1.9,0.9-3.6,2.2-4.9,3.9c-1.5,2-2.6,4.2-3.2,6.5c-0.8,2.9-1.2,6-1.2,9s0.4,6.1,1.2,9
		c0.7,2.4,1.8,4.7,3.3,6.7c2.7,3.4,6.8,5.4,11.1,5.3c2.8,0,5.5-0.8,7.9-2.3c2.6-1.7,4.5-4.2,5.7-7C705.9,41.2,706.6,37.2,706.5,33.2
		L706.5,33.2z"/>
	<path class="st4" d="M741.9,10.1l21.5,34.6V9.8c-0.1-1.8,0.4-3.6,1.4-5.1c0.9-1.1,2.3-1.8,3.7-1.7c1.5-0.1,2.9,0.6,3.8,1.7
		c1,1.5,1.5,3.3,1.4,5.1V56c0,5.2-2,7.7-6,7.7c-0.9,0-1.8-0.1-2.7-0.5c-0.8-0.3-1.6-0.8-2.3-1.5c-0.7-0.7-1.4-1.5-2-2.3
		c-0.6-0.9-1.2-1.8-1.8-2.8l-21-34.2v34.4c0.1,1.8-0.4,3.6-1.5,5.1c-1.8,2.1-5,2.3-7.1,0.5c-0.2-0.2-0.4-0.3-0.5-0.5
		c-1-1.5-1.6-3.3-1.4-5.1V11.6c-0.1-1.5,0.1-3.1,0.6-4.5c0.5-1.2,1.3-2.2,2.4-2.9c1-0.7,2.3-1.1,3.6-1.1c0.9,0,1.8,0.2,2.6,0.5
		c0.7,0.3,1.3,0.8,1.9,1.4c0.6,0.7,1.2,1.5,1.7,2.3C740.7,8.1,741.3,9.1,741.9,10.1z"/>
	<path d="M279.3,255h10.2c2.3,0,4.6,0.2,6.8,0.7c1.9,0.5,3.7,1.4,5.1,2.8c4,3.4,6,8.7,6,15.7c0,2.1-0.2,4.2-0.6,6.3
		c-0.4,1.8-1,3.5-1.9,5.2c-0.8,1.6-1.9,3-3.3,4.1c-1,0.9-2.2,1.7-3.4,2.2c-1.3,0.6-2.6,1-4,1.2c-1.6,0.2-3.2,0.4-4.8,0.3h-10.1
		c-1.1,0.1-2.2-0.2-3.2-0.6c-0.7-0.4-1.2-1-1.4-1.8c-0.2-1-0.4-2-0.3-3v-28.3c-0.4-2.2,1.1-4.4,3.3-4.8
		C278.3,255,278.8,255,279.3,255L279.3,255z M282.3,261.2v26.1h5.9c1.3,0,2.3,0,3-0.1c0.8-0.1,1.6-0.3,2.3-0.5
		c0.8-0.3,1.4-0.7,2-1.2c2.6-2.2,3.9-6,3.9-11.4c0-3.8-0.6-6.6-1.7-8.5c-0.9-1.7-2.4-3-4.2-3.6c-2-0.6-4-0.8-6.1-0.8H282.3z"/>
	<path d="M339.7,261.1h-17.6v9.5h16.2c1-0.1,1.9,0.2,2.7,0.8c0.6,0.5,0.9,1.3,0.9,2.1c0,0.8-0.3,1.6-0.9,2.1
		c-0.8,0.6-1.7,0.9-2.7,0.8h-16.2v11h18.2c1-0.1,2,0.2,2.8,0.9c0.6,0.6,1,1.4,0.9,2.3c0,0.8-0.3,1.7-0.9,2.2
		c-0.8,0.6-1.8,0.9-2.8,0.9h-21.2c-2.2,0.4-4.4-1-4.8-3.3c-0.1-0.5-0.1-1,0-1.5v-29c0-0.9,0.1-1.9,0.5-2.7c0.3-0.7,0.9-1.2,1.6-1.6
		c0.9-0.4,1.8-0.5,2.7-0.5h20.6c1-0.1,2,0.2,2.8,0.8c1.2,1.2,1.2,3.1,0,4.3l0,0C341.7,260.9,340.7,261.1,339.7,261.1z"/>
	<path d="M383.7,289.2l-1.8-4.9h-15.6l-1.8,5c-0.4,1.4-1,2.7-1.8,3.9c-0.6,0.7-1.5,1.1-2.5,1c-1,0-1.9-0.4-2.6-1.1
		c-0.7-0.6-1.1-1.5-1.1-2.5c0-0.6,0.1-1.1,0.3-1.6c0.2-0.6,0.5-1.4,0.9-2.4l9.8-25.1l1-2.6c0.3-0.9,0.7-1.7,1.2-2.5
		c1-1.5,2.7-2.3,4.4-2.2c0.9,0,1.9,0.2,2.7,0.6c0.7,0.4,1.3,0.9,1.7,1.6c0.4,0.7,0.8,1.4,1.1,2.1c0.3,0.8,0.7,1.7,1.2,3l10,24.9
		c0.6,1.3,1,2.7,1.2,4.1c0,0.9-0.4,1.8-1.1,2.5s-1.7,1.1-2.7,1.1c-0.5,0-1.1-0.1-1.6-0.3c-0.4-0.2-0.8-0.5-1.1-0.9
		c-0.4-0.5-0.7-1.1-1-1.7C384.2,290.5,383.9,289.8,383.7,289.2z M368.4,278.5h11.4l-5.8-15.9L368.4,278.5z"/>
	<path d="M405.4,259.1v11h16.7v-11c-0.1-1.3,0.3-2.5,1-3.6c0.7-0.8,1.7-1.2,2.8-1.2c1.1,0,2.1,0.4,2.8,1.2c0.8,1,1.2,2.3,1.1,3.6
		v30.4c0.1,1.3-0.3,2.6-1.1,3.6c-0.7,0.8-1.7,1.2-2.8,1.2c-1.1,0-2.1-0.4-2.8-1.2c-0.8-1-1.1-2.3-1-3.6v-13h-16.7v13
		c0.1,1.3-0.3,2.6-1.1,3.6c-0.7,0.8-1.8,1.2-2.8,1.2c-1.1,0-2.1-0.4-2.8-1.2c-0.7-1-1.1-2.3-1-3.6v-30.4c-0.1-1.3,0.2-2.5,1-3.6
		c0.7-0.8,1.7-1.2,2.8-1.2c1.1,0,2.1,0.4,2.8,1.2C405.1,256.5,405.5,257.8,405.4,259.1z"/>
	<path d="M454.9,254.3c3.6-0.1,7.1,0.7,10.2,2.4c2.8,1.6,5.1,4,6.5,6.9c1.5,3.3,2.3,6.9,2.2,10.5c0,2.8-0.4,5.5-1.2,8.1
		c-0.7,2.3-2,4.5-3.6,6.4c-1.6,1.8-3.6,3.2-5.9,4.1c-5.2,1.9-10.8,1.9-16,0c-2.3-0.9-4.3-2.3-5.9-4.1c-1.6-1.9-2.8-4-3.6-6.4
		c-0.8-2.6-1.2-5.3-1.2-8.1c0-2.8,0.4-5.5,1.3-8.2c0.8-2.3,2-4.5,3.7-6.3c1.6-1.8,3.6-3.1,5.8-4
		C449.6,254.8,452.3,254.3,454.9,254.3z M465.9,274.2c0.1-2.5-0.4-5-1.4-7.4c-0.8-1.9-2.1-3.6-3.9-4.7c-3-1.8-6.8-2.1-10.1-0.7
		c-1.3,0.6-2.5,1.5-3.4,2.6c-1,1.3-1.8,2.7-2.2,4.3c-0.6,1.9-0.8,3.9-0.8,5.9s0.2,4,0.8,6c0.5,1.6,1.3,3.1,2.3,4.4
		c0.9,1.1,2.1,2,3.4,2.6c5.1,2.4,11.2,0.1,13.6-5c0-0.1,0.1-0.2,0.1-0.2C465.5,279.5,466,276.8,465.9,274.2z"/>
	<path d="M490.8,277.1h-2.7v12.4c0.1,1.3-0.3,2.6-1.1,3.6c-0.7,0.8-1.7,1.2-2.8,1.2c-1.1,0.1-2.1-0.4-2.9-1.2c-0.7-1-1.1-2.3-1-3.6
		v-29.6c-0.1-1.3,0.3-2.6,1.1-3.7c1-0.9,2.3-1.3,3.6-1.1h12.6c1.5,0,3,0.1,4.5,0.2c1.2,0.1,2.3,0.4,3.3,0.9c2.4,1,4.3,3,5.3,5.5
		c0.5,1.3,0.7,2.6,0.7,4c0.1,2.5-0.7,5-2.4,6.9c-2,1.9-4.6,3.2-7.3,3.7c1.5,0.8,2.8,1.9,3.9,3.3c1.2,1.4,2.4,3,3.3,4.6
		c0.9,1.4,1.6,2.9,2.3,4.4c0.4,0.8,0.7,1.8,0.8,2.7c0,0.5-0.2,1.1-0.5,1.5c-0.3,0.5-0.8,0.9-1.3,1.2c-0.6,0.3-1.3,0.5-1.9,0.4
		c-0.8,0-1.5-0.2-2.2-0.6c-0.6-0.4-1.1-1-1.5-1.6s-1-1.6-1.7-2.8l-3.1-5.2c-0.9-1.5-1.9-3-3-4.4c-0.7-0.9-1.6-1.6-2.7-2
		C493.1,277.3,492,277.1,490.8,277.1z M495.2,260.8h-7.1v10.6h6.9c1.6,0,3.2-0.1,4.7-0.5c1.1-0.2,2.1-0.8,2.9-1.7
		c0.7-0.9,1.1-2.1,1-3.2c0-1-0.3-2-0.8-2.8s-1.3-1.5-2.2-1.8C498.8,260.9,497,260.7,495.2,260.8z"/>
	<path d="M529.2,277.1h-2.7v12.4c0.1,1.3-0.3,2.6-1.1,3.6c-0.7,0.8-1.7,1.2-2.8,1.2c-1.1,0.1-2.1-0.4-2.9-1.2c-0.7-1-1.1-2.3-1-3.6
		v-29.6c-0.1-1.3,0.3-2.6,1.1-3.7c1-0.8,2.3-1.3,3.6-1.1H536c1.5,0,3,0.1,4.5,0.2c1.2,0.1,2.3,0.4,3.3,0.9c1.2,0.5,2.3,1.3,3.2,2.2
		c0.9,0.9,1.6,2.1,2.1,3.3c0.5,1.3,0.7,2.6,0.7,4c0.1,2.5-0.7,5-2.4,6.9c-2,1.9-4.6,3.2-7.3,3.7c1.5,0.8,2.8,1.9,3.9,3.3
		c1.2,1.4,2.4,3,3.3,4.6c0.9,1.4,1.6,2.9,2.3,4.4c0.4,0.9,0.7,1.8,0.8,2.7c0,0.5-0.2,1.1-0.5,1.5c-0.3,0.5-0.8,0.9-1.3,1.2
		c-0.6,0.3-1.3,0.5-1.9,0.4c-0.8,0-1.5-0.2-2.2-0.6c-0.6-0.4-1.1-1-1.5-1.6s-1-1.6-1.7-2.8l-3.1-5.2c-0.9-1.5-1.9-3-3-4.4
		c-0.7-0.9-1.6-1.6-2.7-2C531.5,277.3,530.4,277.1,529.2,277.1z M533.6,260.8h-7.2v10.6h6.9c1.6,0,3.2-0.1,4.7-0.5
		c1.1-0.2,2.1-0.8,2.9-1.7c0.7-0.9,1.1-2.1,1-3.2c0-1-0.3-2-0.8-2.8s-1.3-1.5-2.2-1.8C537.2,260.9,535.4,260.7,533.6,260.8z"/>
	<path d="M574,254.3c3.6-0.1,7.1,0.7,10.2,2.4c2.8,1.6,5.1,4,6.5,6.9c1.5,3.3,2.3,6.9,2.2,10.5c0,2.8-0.4,5.5-1.2,8.1
		c-0.7,2.3-2,4.5-3.6,6.4c-1.6,1.8-3.6,3.2-5.9,4.1c-5.2,1.9-10.8,1.9-16,0c-2.3-0.9-4.3-2.3-5.9-4.1c-1.6-1.9-2.9-4-3.6-6.4
		c-0.8-2.6-1.2-5.3-1.2-8.1c0-2.8,0.4-5.5,1.3-8.2c0.8-2.3,2-4.5,3.7-6.3c1.6-1.8,3.6-3.1,5.8-4C568.7,254.8,571.3,254.3,574,254.3z
		 M585,274.2c0.1-2.5-0.4-5-1.4-7.4c-0.8-1.9-2.1-3.6-3.9-4.7c-3.1-1.8-6.8-2.1-10.1-0.7c-1.3,0.6-2.5,1.5-3.4,2.6
		c-1,1.3-1.8,2.7-2.2,4.3c-0.6,1.9-0.8,3.9-0.8,5.9s0.2,4,0.8,6c0.5,1.6,1.2,3.1,2.3,4.4c0.9,1.1,2.1,2,3.4,2.6
		c1.3,0.6,2.8,0.9,4.3,0.9c4.1,0.1,7.8-2.3,9.4-6.1C584.6,279.5,585.1,276.8,585,274.2z"/>
	<path d="M628.5,282c0,2.2-0.6,4.4-1.8,6.3c-1.3,1.9-3.1,3.5-5.2,4.4c-2.6,1.1-5.4,1.6-8.2,1.6c-3.2,0.1-6.5-0.6-9.3-2.2
		c-1.7-1-3.2-2.4-4.2-4.1c-1-1.5-1.6-3.2-1.6-5c0-0.9,0.4-1.8,1-2.4c0.7-0.7,1.6-1,2.5-1c0.8,0,1.5,0.3,2.1,0.8
		c0.7,0.7,1.2,1.5,1.5,2.3c0.4,1.1,0.9,2.1,1.6,3.1c0.6,0.9,1.4,1.5,2.4,2c1.2,0.6,2.6,0.9,4,0.8c2,0.1,4-0.5,5.6-1.6
		c1.3-0.9,2.1-2.4,2.2-4c0-1.2-0.4-2.3-1.2-3.1c-0.8-0.8-1.9-1.5-3-1.8c-1.2-0.4-2.9-0.9-4.9-1.3c-2.4-0.5-4.7-1.3-6.9-2.3
		c-1.7-0.8-3.3-2-4.4-3.5c-1.1-1.6-1.7-3.6-1.6-5.6c0-2,0.6-4,1.7-5.7c1.3-1.7,3-3.1,5-3.8c2.4-0.9,5-1.4,7.7-1.3
		c2.1,0,4.1,0.3,6.1,0.9c1.6,0.5,3,1.3,4.3,2.3c1,0.8,1.9,1.9,2.5,3.1c0.5,1,0.8,2,0.8,3.1c0,0.9-0.4,1.8-1,2.5s-1.5,1.1-2.4,1.1
		c-0.7,0-1.4-0.2-2-0.7c-0.6-0.7-1.1-1.4-1.5-2.2c-0.6-1.3-1.4-2.5-2.5-3.4c-1-0.8-2.5-1.2-4.7-1.2c-1.7-0.1-3.4,0.4-4.8,1.3
		c-1.1,0.7-1.8,1.9-1.8,3.2c0,0.7,0.2,1.4,0.6,2c0.5,0.6,1,1.1,1.7,1.5c0.7,0.4,1.4,0.7,2.2,1c0.8,0.2,2,0.6,3.7,1
		c2,0.5,3.9,1,5.8,1.7c1.6,0.5,3.1,1.3,4.5,2.2c1.2,0.9,2.2,2,2.9,3.3C628.2,278.7,628.5,280.3,628.5,282z"/>
	<path d="M660.3,289.5v-12.2l-9.3-14.6c-0.6-1-1.2-2-1.7-3.1c-0.3-0.6-0.5-1.3-0.5-1.9c0-0.9,0.4-1.7,1-2.3c0.7-0.7,1.6-1,2.5-1
		c0.9-0.1,1.8,0.3,2.4,0.9c0.9,1.1,1.7,2.4,2.5,3.6l7.1,11.7l7.2-11.7l1.1-1.8c0.3-0.5,0.6-0.9,1-1.4c0.3-0.4,0.7-0.7,1.2-1
		c1.3-0.6,2.9-0.4,4,0.6c0.6,0.6,1,1.4,1,2.2c0,0.7-0.2,1.4-0.5,2.1c-0.5,1-1.1,1.9-1.7,2.8l-9.6,14.8v12.2c0.1,1.3-0.3,2.6-1.1,3.6
		c-0.7,0.8-1.7,1.2-2.8,1.2s-2.1-0.4-2.8-1.2C660.6,292,660.2,290.8,660.3,289.5z"/>
	<path d="M714.5,278.6h-7.1v10.9c0.1,1.3-0.3,2.6-1.1,3.6c-1.4,1.5-3.9,1.6-5.4,0.2c-0.1-0.1-0.1-0.1-0.2-0.2c-0.8-1-1.1-2.3-1-3.5
		v-29.7c-0.1-1.3,0.3-2.7,1.2-3.7c1.1-0.8,2.4-1.2,3.7-1.1h9.9c2.3-0.1,4.6,0.2,6.8,0.7c1.5,0.4,2.9,1.2,4.1,2.2
		c1.1,1,2,2.3,2.6,3.7c0.6,1.6,0.9,3.3,0.9,5c0,3.9-1.2,6.9-3.6,8.9C722.9,277.6,719.3,278.6,714.5,278.6z M712.6,260.8h-5.2v11.8
		h5.2c1.5,0,3.1-0.2,4.6-0.6c1.1-0.3,2.1-1,2.8-1.9c0.7-1,1-2.2,1-3.5c0.1-1.5-0.5-3-1.5-4.2C718.4,261.4,716.1,260.8,712.6,260.8z"
		/>
	<path d="M745.7,277.1H743v12.4c0.1,1.3-0.3,2.6-1.1,3.6c-0.7,0.8-1.7,1.2-2.8,1.2c-1.1,0.1-2.1-0.4-2.9-1.2c-0.7-1-1.1-2.3-1-3.6
		v-29.6c-0.1-1.3,0.3-2.6,1.1-3.7c1-0.9,2.3-1.3,3.6-1.1h12.6c1.5,0,3,0.1,4.5,0.2c1.2,0.1,2.3,0.4,3.3,0.9c2.4,1,4.3,3,5.3,5.5
		c0.5,1.3,0.7,2.6,0.7,4c0.1,2.5-0.7,5-2.4,6.9c-2,1.9-4.6,3.2-7.3,3.7c1.5,0.8,2.8,1.9,3.9,3.3c1.2,1.4,2.4,3,3.3,4.6
		c0.9,1.4,1.6,2.9,2.3,4.4c0.4,0.8,0.7,1.8,0.8,2.7c0,0.5-0.2,1.1-0.5,1.5c-0.3,0.5-0.8,0.9-1.3,1.2c-0.6,0.3-1.3,0.5-1.9,0.4
		c-0.8,0-1.5-0.2-2.2-0.6c-0.6-0.4-1.1-1-1.5-1.6s-1-1.6-1.7-2.8l-3.1-5.2c-0.9-1.5-1.9-3-3-4.4c-0.7-0.9-1.6-1.6-2.7-2
		C748,277.3,746.9,277.1,745.7,277.1z M750.1,260.8H743v10.6h6.9c1.6,0,3.2-0.1,4.7-0.5c1.1-0.2,2.1-0.8,2.9-1.7
		c0.7-0.9,1.1-2.1,1-3.2c0-1-0.3-2-0.8-2.8s-1.3-1.5-2.2-1.8C753.7,260.9,751.9,260.7,750.1,260.8z"/>
	<path d="M798.8,261h-17.4v9.5h16c1-0.1,1.9,0.2,2.7,0.8c0.6,0.5,0.9,1.3,0.9,2.1c0,0.8-0.3,1.6-0.9,2.1c-0.7,0.6-1.7,0.9-2.7,0.8
		h-16v11h18c1-0.1,2,0.2,2.8,0.9c0.6,0.6,1,1.4,0.9,2.3c0,0.8-0.3,1.7-0.9,2.2c-0.8,0.6-1.8,0.9-2.8,0.9h-21
		c-1.3,0.1-2.6-0.3-3.6-1.1c-0.8-1-1.2-2.3-1.1-3.6v-29c0-0.9,0.1-1.9,0.5-2.8c0.3-0.7,0.9-1.2,1.5-1.6c0.9-0.4,1.8-0.5,2.7-0.5
		h20.4c1-0.1,2,0.2,2.8,0.8c1.2,1.2,1.2,3.2,0,4.4C800.8,260.8,799.8,261.1,798.8,261z"/>
	<path d="M838.3,282c0,2.2-0.6,4.4-1.8,6.3c-1.3,1.9-3.1,3.5-5.2,4.4c-2.6,1.1-5.4,1.6-8.2,1.6c-3.2,0.1-6.5-0.6-9.3-2.2
		c-1.7-1-3.2-2.4-4.2-4.1c-1-1.5-1.6-3.2-1.6-5c0-0.9,0.4-1.8,1-2.4c0.7-0.7,1.6-1,2.5-1c0.8,0,1.5,0.3,2.1,0.8
		c0.7,0.7,1.2,1.5,1.5,2.3c0.4,1.1,0.9,2.1,1.6,3.1c0.6,0.9,1.4,1.5,2.4,2c1.2,0.6,2.6,0.9,4,0.8c2,0.1,4-0.5,5.6-1.6
		c1.4-0.9,2.2-2.4,2.2-4.1c0-1.2-0.4-2.3-1.2-3.1c-0.8-0.8-1.9-1.5-3-1.8c-1.2-0.4-2.9-0.9-4.9-1.3c-2.4-0.5-4.7-1.3-6.9-2.3
		c-1.7-0.8-3.3-2-4.4-3.5c-1.1-1.6-1.7-3.6-1.6-5.6c0-2,0.6-4,1.7-5.7c1.3-1.7,3-3.1,5-3.8c2.4-0.9,5.1-1.4,7.7-1.3
		c2.1,0,4.1,0.3,6.1,0.9c1.6,0.5,3,1.3,4.3,2.3c1,0.8,1.9,1.9,2.5,3.1c0.5,1,0.8,2,0.8,3.1c0,0.9-0.4,1.8-1,2.5s-1.5,1.1-2.4,1.1
		c-0.7,0-1.4-0.2-2-0.7c-0.6-0.7-1.1-1.4-1.5-2.2c-0.6-1.3-1.4-2.5-2.5-3.4c-1-0.8-2.5-1.2-4.7-1.2c-1.7-0.1-3.4,0.4-4.8,1.3
		c-1.1,0.7-1.8,1.9-1.8,3.2c0,0.7,0.2,1.4,0.6,2c0.5,0.6,1,1.1,1.7,1.5c0.7,0.4,1.4,0.7,2.2,1c0.8,0.2,2,0.6,3.7,1
		c2,0.5,3.9,1,5.8,1.7c1.6,0.5,3.1,1.3,4.5,2.2c1.2,0.9,2.2,2,2.9,3.3C838,278.7,838.4,280.3,838.3,282z"/>
	<path d="M869.7,261.5h-8.5v28c0.1,1.3-0.3,2.6-1.1,3.6c-0.7,0.8-1.7,1.2-2.8,1.2s-2.1-0.4-2.8-1.2c-0.8-1-1.2-2.3-1.1-3.6v-28h-8.5
		c-1.1,0.1-2.1-0.2-2.9-0.9c-1.3-1.3-1.3-3.3-0.1-4.6c0,0,0,0,0.1-0.1c0.8-0.6,1.9-0.9,2.9-0.9h24.6c1.1-0.1,2.1,0.2,3,0.9
		c0.7,0.6,1,1.5,1,2.3c0,0.9-0.3,1.7-1,2.3C871.8,261.2,870.8,261.5,869.7,261.5z"/>
	<path d="M899.3,289.2l-1.8-4.9H882l-1.8,5c-0.4,1.4-1.1,2.7-1.8,3.9c-0.6,0.7-1.5,1.1-2.5,1c-1,0-1.9-0.4-2.6-1.1
		c-0.7-0.6-1.1-1.5-1.1-2.5c0-0.6,0.1-1.1,0.3-1.6c0.2-0.6,0.5-1.4,0.9-2.4l9.8-25.1c0.3-0.7,0.6-1.6,1-2.6c0.3-0.9,0.7-1.7,1.2-2.5
		c0.4-0.7,1-1.2,1.8-1.6c0.8-0.4,1.7-0.7,2.7-0.6c0.9,0,1.9,0.2,2.7,0.6c0.7,0.4,1.3,0.9,1.7,1.6c0.4,0.7,0.8,1.4,1.1,2.1
		c0.3,0.8,0.7,1.7,1.2,3l10,24.9c0.6,1.3,1,2.7,1.2,4.1c0,0.9-0.4,1.8-1.1,2.5s-1.7,1.1-2.7,1.1c-0.5,0-1.1-0.1-1.6-0.3
		c-0.4-0.2-0.8-0.5-1.1-0.9c-0.4-0.5-0.7-1.1-1-1.7C899.8,290.5,899.5,289.8,899.3,289.2z M884,278.5h11.4l-5.8-15.9L884,278.5z"/>
	<path d="M926.1,287.8l-6.1-24.6v26.7c0.1,1.2-0.3,2.4-1,3.3c-1.3,1.4-3.6,1.5-5,0.1l-0.1-0.1c-0.7-0.9-1.1-2.1-1-3.3v-30.5
		c0-1.7,0.4-2.8,1.3-3.4c1.1-0.6,2.3-1,3.5-0.9h2.4c1.1-0.1,2.1,0.1,3.1,0.4c0.7,0.3,1.2,0.8,1.5,1.5c0.4,1.1,0.8,2.2,1.1,3.3
		l5.5,21.1l5.5-21.1c0.3-1.1,0.6-2.3,1.1-3.3c0.3-0.6,0.8-1.2,1.5-1.4c1-0.3,2.1-0.5,3.1-0.4h2.4c1.2-0.1,2.5,0.2,3.5,0.9
		c0.9,0.6,1.3,1.7,1.3,3.4V290c0.1,1.2-0.3,2.4-1,3.3c-0.7,0.7-1.6,1.2-2.6,1.1c-1,0-1.9-0.4-2.5-1.1c-0.7-0.9-1.1-2.1-1-3.3v-26.7
		l-6.1,24.6c-0.4,1.6-0.7,2.8-1,3.5c-0.3,0.8-0.8,1.5-1.4,2c-0.8,0.7-1.8,1-2.8,0.9c-1.5,0.1-3-0.8-3.8-2.1c-0.4-0.6-0.6-1.3-0.8-2
		C926.5,289.4,926.3,288.6,926.1,287.8z"/>
	<path d="M974.5,254.3c3.6-0.1,7.1,0.7,10.2,2.4c2.8,1.6,5.1,4,6.5,6.9c1.5,3.3,2.3,6.9,2.2,10.5c0,2.8-0.4,5.5-1.2,8.1
		c-0.7,2.3-2,4.5-3.6,6.4c-1.6,1.8-3.6,3.2-5.9,4.1c-5.2,1.9-10.8,1.9-16,0c-2.3-0.9-4.3-2.3-5.9-4.1c-1.6-1.9-2.9-4-3.6-6.4
		c-0.8-2.6-1.2-5.3-1.2-8.1c0-2.8,0.4-5.5,1.3-8.2c0.8-2.3,2-4.5,3.7-6.3c1.6-1.8,3.6-3.1,5.8-4
		C969.2,254.8,971.9,254.3,974.5,254.3z M985.5,274.2c0.1-2.5-0.4-5-1.3-7.4c-0.8-1.9-2.1-3.6-3.9-4.7c-3-1.8-6.8-2.1-10.1-0.7
		c-1.3,0.6-2.5,1.5-3.4,2.6c-1,1.3-1.8,2.7-2.2,4.3c-0.6,1.9-0.8,3.9-0.8,5.9s0.2,4,0.8,6c0.5,1.6,1.3,3.1,2.3,4.4
		c0.9,1.1,2.1,2,3.4,2.6s2.8,0.9,4.3,0.9c4.1,0.1,7.8-2.3,9.4-6.1C985.1,279.5,985.6,276.8,985.5,274.2L985.5,274.2z"/>
	<path d="M1029,282c0,2.2-0.6,4.4-1.8,6.3c-1.3,1.9-3.1,3.5-5.2,4.4c-2.6,1.1-5.4,1.6-8.2,1.6c-3.2,0.1-6.5-0.6-9.3-2.2
		c-1.7-1-3.2-2.4-4.2-4.1c-1-1.5-1.6-3.2-1.6-5c0-0.9,0.4-1.8,1-2.4c0.7-0.7,1.6-1,2.5-1c0.8,0,1.5,0.3,2.1,0.8
		c0.6,0.7,1.1,1.5,1.4,2.3c0.4,1.1,0.9,2.1,1.6,3.1c0.6,0.9,1.4,1.5,2.4,2c1.2,0.6,2.6,0.9,4,0.8c2,0.1,4-0.5,5.6-1.6
		c1.3-0.9,2.2-2.4,2.2-4c0.1-1.2-0.4-2.3-1.2-3.1c-0.8-0.8-1.9-1.5-3-1.8c-1.2-0.4-2.9-0.9-4.9-1.3c-2.4-0.5-4.7-1.3-6.9-2.3
		c-1.7-0.8-3.3-2-4.4-3.5c-1.1-1.6-1.7-3.6-1.6-5.6c0-2,0.6-4,1.7-5.7c1.3-1.7,3-3.1,5-3.8c2.4-0.9,5-1.4,7.7-1.3
		c2.1,0,4.1,0.3,6.1,0.9c1.6,0.5,3,1.3,4.3,2.3c1,0.8,1.9,1.9,2.5,3.1c0.5,1,0.8,2,0.8,3.1c0,0.9-0.4,1.8-1,2.5s-1.5,1.1-2.4,1.1
		c-0.7,0-1.4-0.2-2-0.7c-0.6-0.7-1.1-1.4-1.5-2.2c-0.6-1.3-1.4-2.5-2.5-3.4c-1.4-0.9-3-1.4-4.7-1.2c-1.7-0.1-3.4,0.4-4.8,1.3
		c-1.1,0.7-1.8,1.9-1.8,3.2c0,0.7,0.2,1.4,0.6,2c0.5,0.6,1,1.1,1.7,1.5c0.7,0.4,1.4,0.7,2.2,1c0.8,0.2,2,0.6,3.7,1
		c2,0.5,3.9,1,5.8,1.7c1.6,0.5,3.1,1.3,4.4,2.2c1.2,0.9,2.2,2,2.9,3.3C1028.7,278.7,1029,280.3,1029,282z"/>
</g>
</svg>
